<svg aria-hidden="true" style="position: absolute; width: 0; height: 0; overflow: hidden;" version="1.1" xmlns="http://www.w3.org/2000/svg" xmlns:xlink="http://www.w3.org/1999/xlink">
<defs>
<symbol id="icon-arrow-right" viewBox="0 0 12 32">
<path d="M0 24.041v-16.083c0-1.114 1.346-1.671 2.134-0.884l8.041 8.041c0.488 0.488 0.488 1.28 0 1.768l-8.041 8.041c-0.787 0.788-2.134 0.23-2.134-0.884z"></path>
</symbol>
<symbol id="icon-arrow-top" viewBox="0 0 20 32">
<path d="M18.041 22h-16.083c-1.114 0-1.671-1.346-0.884-2.134l8.041-8.041c0.488-0.488 1.28-0.488 1.768 0l8.041 8.041c0.788 0.787 0.23 2.134-0.884 2.134z"></path>
</symbol>
<symbol id="icon-arrow-bottom" viewBox="0 0 20 32">
<path d="M1.959 10h16.083c1.114 0 1.671 1.346 0.884 2.134l-8.041 8.041c-0.488 0.488-1.28 0.488-1.768 0l-8.041-8.041c-0.788-0.787-0.231-2.134 0.883-2.134z"></path>
</symbol>
<symbol id="icon-email" viewBox="0 0 32 32">
<path d="M31.394 11.925c0.244-0.194 0.606-0.012 0.606 0.294v12.781c0 1.656-1.344 3-3 3h-26c-1.656 0-3-1.344-3-3v-12.775c0-0.313 0.356-0.488 0.606-0.294 1.4 1.088 3.256 2.469 9.631 7.1 1.319 0.962 3.544 2.988 5.763 2.975 2.231 0.019 4.5-2.050 5.769-2.975 6.375-4.631 8.225-6.019 9.625-7.106zM16 20c1.45 0.025 3.538-1.825 4.587-2.587 8.294-6.019 8.925-6.544 10.837-8.044 0.363-0.281 0.575-0.719 0.575-1.181v-1.188c0-1.656-1.344-3-3-3h-26c-1.656 0-3 1.344-3 3v1.188c0 0.463 0.212 0.894 0.575 1.181 1.912 1.494 2.544 2.025 10.838 8.044 1.050 0.762 3.138 2.613 4.588 2.587z"></path>
</symbol>
<symbol id="icon-phone" viewBox="0 0 28 32">
<path d="M25 2h-22c-1.657 0-3 1.343-3 3v22c0 1.657 1.343 3 3 3h22c1.657 0 3-1.343 3-3v-22c0-1.657-1.343-3-3-3zM5.875 26c-0.44 0-0.816-0.305-0.913-0.727l-0.937-4.063c-0.015-0.063-0.024-0.136-0.024-0.211 0-0.384 0.231-0.715 0.562-0.859l0.006-0.002 4.375-1.875c0.109-0.048 0.236-0.076 0.369-0.076 0.292 0 0.552 0.133 0.724 0.342l0.001 0.002 1.937 2.368c3.059-1.435 5.519-3.929 6.924-6.924l-2.368-1.937c-0.211-0.173-0.344-0.434-0.344-0.726 0-0.133 0.028-0.26 0.078-0.375l-0.002 0.006 1.875-4.375c0.147-0.337 0.477-0.568 0.862-0.568 0.075 0 0.147 0.009 0.217 0.025l-0.006-0.001 4.063 0.937c0.419 0.099 0.727 0.47 0.727 0.913 0 0 0 0 0 0v0c0 10.018-8.122 18.125-18.125 18.125z"></path>
</symbol>
</defs>
</svg>
